HIERARCHY
ROOT root
{
	OFFSET	0	13.1	24.9
	CHANNELS 6  Xposition Yposition Zposition Xrotation Yrotation Zrotation
	JOINT spine_1
	{
		OFFSET	0	9.99999	0
		CHANNELS 3  Xrotation Yrotation Zrotation
		JOINT spine_2
		{
			OFFSET	0	112	-10
			CHANNELS 3  Xrotation Yrotation Zrotation
			JOINT spine_3
			{
				OFFSET	0	206.5	19.3
				CHANNELS 3  Xrotation Yrotation Zrotation
				JOINT spine_4
				{
					OFFSET	0	110.4	14.6
					CHANNELS 3  Xrotation Yrotation Zrotation
					JOINT neck_1
					{
						OFFSET	0	71.8	-50.3
						CHANNELS 3  Xrotation Yrotation Zrotation
						JOINT neck_2
						{
							OFFSET	0	86.2	-25.8
							CHANNELS 3  Xrotation Yrotation Zrotation
							JOINT head_ee
							{
								OFFSET	0	179.8	-8.7
								CHANNELS 3  Xrotation Yrotation Zrotation
								End Site
								{
									OFFSET	1	0	0
								}
							}
						}
					}
					JOINT left_clavicle
					{
						OFFSET	-43.2	22.4	-70.8
						CHANNELS 3  Xrotation Yrotation Zrotation
						JOINT left_shoulder
						{
							OFFSET	-93.9	-5.79999	48.7
							CHANNELS 3  Xrotation Yrotation Zrotation
							JOINT left_elbow
							{
								OFFSET	-291.4	-30.8	15.2
								CHANNELS 3  Xrotation Yrotation Zrotation
								JOINT left_lowarm_twist
								{
									OFFSET	-110.7	-3.89999	13.6
									CHANNELS 3  Xrotation Yrotation Zrotation
									JOINT left_hand
									{
										OFFSET	-110.7	-3.89999	13.6
										CHANNELS 3  Xrotation Yrotation Zrotation
										JOINT left_ee
										{
											OFFSET	-80.8	-5.10001	12.1
											CHANNELS 3  Xrotation Yrotation Zrotation
											End Site
											{
												OFFSET	1	0	0
											}
										}
									}
								}
							}
						}
					}
					JOINT right_clavicle
					{
						OFFSET	43.2	22.4	-70.8
						CHANNELS 3  Xrotation Yrotation Zrotation
						JOINT right_shoulder
						{
							OFFSET	93.9	-5.79999	48.7
							CHANNELS 3  Xrotation Yrotation Zrotation
							JOINT right_elbow
							{
								OFFSET	291.4	-30.8	15.2
								CHANNELS 3  Xrotation Yrotation Zrotation
								JOINT right_lowarm_twist
								{
									OFFSET	110.7	-3.89999	13.6
									CHANNELS 3  Xrotation Yrotation Zrotation
									JOINT right_hand
									{
										OFFSET	110.7	-3.89999	13.6
										CHANNELS 3  Xrotation Yrotation Zrotation
										JOINT right_ee
										{
											OFFSET	80.8	-5.10001	12.1
											CHANNELS 3  Xrotation Yrotation Zrotation
											End Site
											{
												OFFSET	1	0	0
											}
										}
									}
								}
							}
						}
					}
				}
			}
		}
	}
	JOINT left_hip
	{
		OFFSET	-82.8	-127.5	0.300001
		CHANNELS 3  Xrotation Yrotation Zrotation
		JOINT left_knee
		{
			OFFSET	-28.2	-396.7	2.2
			CHANNELS 3  Xrotation Yrotation Zrotation
			JOINT left_ankle
			{
				OFFSET	-11.7	-411.3	35.4
				CHANNELS 3  Xrotation Yrotation Zrotation
				JOINT left_toes
				{
					OFFSET	0	-60	-88.6
					CHANNELS 3  Xrotation Yrotation Zrotation
					JOINT left_foot_ee
					{
						OFFSET	-22.5	-16.5	-42.2
						CHANNELS 3  Xrotation Yrotation Zrotation
						End Site
						{
							OFFSET	1	0	0
						}
					}
				}
			}
		}
	}
	JOINT right_hip
	{
		OFFSET	82.8	-127.5	0.300001
		CHANNELS 3  Xrotation Yrotation Zrotation
		JOINT right_knee
		{
			OFFSET	28.2	-396.7	2.2
			CHANNELS 3  Xrotation Yrotation Zrotation
			JOINT right_ankle
			{
				OFFSET	11.7	-411.3	35.4
				CHANNELS 3  Xrotation Yrotation Zrotation
				JOINT right_toes
				{
					OFFSET	0	-60	-88.6
					CHANNELS 3  Xrotation Yrotation Zrotation
					JOINT right_foot_ee
					{
						OFFSET	22.5	-16.5	-42.2
						CHANNELS 3  Xrotation Yrotation Zrotation
						End Site
						{
							OFFSET	1	0	0
						}
					}
				}
			}
		}
	}
}
MOTION
Frames: 6
Frame Time: 0.02
2800.94 716.97 -1473.77 49.8405861487 83.2186507723 -50.3674188795 -1.39379 0.104264 -0.079064 -1.39379 0.109084 -0.0722692 -1.39394 0.122962 -0.0447501 -1.39393 0.114351 -0.0636079 -0.544488 4.37014 -0.144998 -0.501996 7.93461 0.336342 -0.0 0.0 -0.0 4.24266 0.946937 8.22929 6.38768 -29.2392 56.3515 3.33092 -58.7686 1.87604 27.4228 0.138793 -3.46703 -0.530803 2.23141 -2.5845 -0.0 0.0 -0.0 3.28155 -1.36781 -6.40855 -25.8175 25.7375 -64.0632 0.729282 19.863 -0.127695 -4.00171 0.158071 -0.486373 3.03067 -28.1772 -28.9259 0.0 0.0 0.0 -17.4658 33.4585 0.625613 -12.7193 0.311328 1.92313 16.1484 -5.68695 -2.30234 20.8454 -0.0 -0.0 -0.0 0.0 -0.0 22.382 22.9418 -0.0670022 -4.97765 -0.172703 -0.744159 11.2258 -27.7373 1.6898 -33.6563 0.0 0.0 0.0 0.0 0.0 
2734.73875225 718.912 -1483.74775455 71.0465672917 83.023293938 -73.1998757673 -1.74916 0.146537 0.0948728 -1.74917 0.140203 0.104005 -1.74891 0.111156 0.134604 -1.74891 0.131019 0.11536 0.110145 3.98923 -0.463994 0.153745 7.48329 -0.0838422 -0.0 0.0 -0.0 3.95525 1.67235 7.7109 1.62692 -28.6592 58.5397 3.00348 -56.0828 1.60002 27.1221 0.146299 -3.42936 -0.504549 3.12653 -2.02535 -0.0 0.0 -0.0 3.35192 -1.03242 -6.5233 -23.0321 26.567 -64.8176 0.798321 21.5769 -0.152124 -2.72823 0.104081 -0.332787 3.19398 -28.2923 -30.0009 0.0 0.0 0.0 -20.0422 33.3609 0.0227148 -14.0992 0.319253 2.13471 17.1569 -4.80315 -2.42657 20.5002 -0.0 -0.0 -0.0 0.0 -0.0 18.6207 23.091 0.107617 -8.29836 -0.251682 -1.24757 12.1 -27.2555 1.81082 -33.1432 0.0 0.0 0.0 0.0 0.0 
2734.94447378 718.912 -1485.02838832 62.9447487432 82.5883867969 -65.0340444965 -1.74916 0.146537 0.0948728 -1.74917 0.140203 0.104005 -1.74891 0.111156 0.134604 -1.74891 0.131019 0.11536 0.110145 3.98923 -0.463994 0.153745 7.48329 -0.0838422 -0.0 0.0 -0.0 3.95525 1.67235 7.7109 1.62692 -28.6592 58.5397 3.00348 -56.0828 1.60002 27.1221 0.146299 -3.42936 -0.504549 3.12653 -2.02535 -0.0 0.0 -0.0 3.35192 -1.03242 -6.5233 -23.0321 26.567 -64.8176 0.798321 21.5769 -0.152124 -2.72823 0.104081 -0.332787 3.19398 -28.2923 -30.0009 0.0 0.0 0.0 -20.0422 33.3609 0.0227148 -14.0992 0.319253 2.13471 17.1569 -4.80315 -2.42657 20.5002 -0.0 -0.0 -0.0 0.0 -0.0 18.6207 23.091 0.107617 -8.29836 -0.251682 -1.24757 12.1 -27.2555 1.81082 -33.1432 0.0 0.0 0.0 0.0 0.0 
2735.13106571 718.912 -1486.07223381 57.0812733908 82.1342105744 -59.1182098723 -1.74916 0.146537 0.0948728 -1.74917 0.140203 0.104005 -1.74891 0.111156 0.134604 -1.74891 0.131019 0.11536 0.110145 3.98923 -0.463994 0.153745 7.48329 -0.0838422 -0.0 0.0 -0.0 3.95525 1.67235 7.7109 1.62692 -28.6592 58.5397 3.00348 -56.0828 1.60002 27.1221 0.146299 -3.42936 -0.504549 3.12653 -2.02535 -0.0 0.0 -0.0 3.35192 -1.03242 -6.5233 -23.0321 26.567 -64.8176 0.798321 21.5769 -0.152124 -2.72823 0.104081 -0.332787 3.19398 -28.2923 -30.0009 0.0 0.0 0.0 -20.0422 33.3609 0.0227148 -14.0992 0.319253 2.13471 17.1569 -4.80315 -2.42657 20.5002 -0.0 -0.0 -0.0 0.0 -0.0 18.6207 23.091 0.107617 -8.29836 -0.251682 -1.24757 12.1 -27.2555 1.81082 -33.1432 0.0 0.0 0.0 0.0 0.0 
2710.8517049 720.579 -1488.71369988 61.0426353612 81.0420376156 -63.5779170987 -1.72887 0.0163625 0.304856 -1.72882 -0.00306933 0.305279 -1.72879 -0.076118 0.295653 -1.72891 -0.02847 0.303964 0.317844 3.69264 -0.462749 0.356619 6.94561 -0.123775 -0.0 0.0 -0.0 3.89396 1.7686 7.59849 -0.41737 -28.4477 59.281 2.74396 -53.6489 1.38774 27.0834 0.147251 -3.42451 -0.519867 3.64722 -1.90288 -0.0 0.0 -0.0 3.23154 -0.980886 -6.28959 -22.2729 27.4669 -64.7572 0.811391 21.897 -0.156964 -2.31735 0.0873924 -0.282986 3.25612 -28.9198 -30.4977 0.0 0.0 0.0 -20.1568 33.1746 -0.536953 -14.3066 0.320004 2.16652 16.081 -3.80903 -2.27727 20.4372 -0.0 -0.0 -0.0 0.0 -0.0 16.1646 23.3308 0.891378 -12.1436 -0.306516 -1.83494 10.6423 -27.4075 1.60161 -33.3591 0.0 0.0 0.0 0.0 0.0 
2711.16725626 720.579 -1490.50527898 55.0983773807 80.4375528881 -57.5553961504 -1.72887 0.0163625 0.304856 -1.72882 -0.00306933 0.305279 -1.72879 -0.076118 0.295653 -1.72891 -0.02847 0.303964 0.317844 3.69264 -0.462749 0.356619 6.94561 -0.123775 -0.0 0.0 -0.0 3.89396 1.7686 7.59849 -0.41737 -28.4477 59.281 2.74396 -53.6489 1.38774 27.0834 0.147251 -3.42451 -0.519867 3.64722 -1.90288 -0.0 0.0 -0.0 3.23154 -0.980886 -6.28959 -22.2729 27.4669 -64.7572 0.811391 21.897 -0.156964 -2.31735 0.0873924 -0.282986 3.25612 -28.9198 -30.4977 0.0 0.0 0.0 -20.1568 33.1746 -0.536953 -14.3066 0.320004 2.16652 16.081 -3.80903 -2.27727 20.4372 -0.0 -0.0 -0.0 0.0 -0.0 16.1646 23.3308 0.891378 -12.1436 -0.306516 -1.83494 10.6423 -27.4075 1.60161 -33.3591 0.0 0.0 0.0 0.0 0.0 
